<svg xmlns="http://www.w3.org/2000/svg" viewBox="0 0 512 512">
  <rect width="512" height="512" rx="80" fill="#4F46E5"/>
  <rect x="80" y="60" width="352" height="392" rx="20" fill="#fff" stroke="#E0E0E0" stroke-width="6"/>
  <rect x="110" y="90" width="200" height="14" rx="4" fill="#333"/>
  <rect x="110" y="115" width="250" height="10" rx="3" fill="#999"/>
  <rect x="110" y="138" width="250" height="10" rx="3" fill="#999"/>
  <rect x="110" y="175" width="100" height="80" rx="8" fill="#E0E7FF"/>
  <rect x="225" y="175" width="135" height="10" rx="3" fill="#999"/>
  <rect x="225" y="195" width="135" height="10" rx="3" fill="#999"/>
  <rect x="225" y="215" width="80" height="10" rx="3" fill="#999"/>
  <rect x="110" y="275" width="280" height="10" rx="3" fill="#999"/>
  <rect x="110" y="295" width="280" height="10" rx="3" fill="#999"/>
  <rect x="110" y="315" width="200" height="10" rx="3" fill="#999"/>
  <rect x="110" y="345" width="280" height="10" rx="3" fill="#999"/>
  <rect x="110" y="365" width="150" height="10" rx="3" fill="#999"/>
  <text x="256" y="460" text-anchor="middle" font-size="36" fill="#fff" font-weight="bold">新闻站</text>
</svg>
